<?xml version="1.0" encoding="utf-8"?>
<!-- Generator: Adobe Illustrator 16.0.0, SVG Export Plug-In . SVG Version: 6.00 Build 0)  -->
<!DOCTYPE svg PUBLIC "-//W3C//DTD SVG 1.1//EN" "http://www.w3.org/Graphics/SVG/1.1/DTD/svg11.dtd">
<svg version="1.1" id="Layer_1" xmlns="http://www.w3.org/2000/svg" xmlns:xlink="http://www.w3.org/1999/xlink" x="0px" y="0px"
	 width="32px" height="32px" viewBox="0.003 -74.438 3.894 3.894" enable-background="new 0.003 -74.438 3.894 3.894"
	 xml:space="preserve">
<g id="facebook">
	<path fill="#FFFFFF" d="M1.951-74.438c-1.076,0-1.947,0.872-1.947,1.947s0.872,1.947,1.947,1.947c1.075,0,1.947-0.872,1.947-1.947
		S3.026-74.438,1.951-74.438z M2.38-72.82l-0.022,0.291H2.059v1.012H1.682v-1.012H1.481v-0.291h0.201v-0.196
		c0-0.086,0.002-0.219,0.065-0.302c0.066-0.087,0.156-0.146,0.313-0.146c0.254,0,0.361,0.036,0.361,0.036L2.37-73.13
		c0,0-0.083-0.024-0.162-0.024c-0.079,0-0.149,0.028-0.149,0.106v0.228H2.38L2.38-72.82z"/>
</g>
</svg>
