<?xml version="1.0" encoding="utf-8"?>
<!-- Generator: Adobe Illustrator 16.0.0, SVG Export Plug-In . SVG Version: 6.00 Build 0)  -->
<!DOCTYPE svg PUBLIC "-//W3C//DTD SVG 1.1//EN" "http://www.w3.org/Graphics/SVG/1.1/DTD/svg11.dtd">
<svg version="1.1" id="Layer_1" xmlns="http://www.w3.org/2000/svg" xmlns:xlink="http://www.w3.org/1999/xlink" x="0px" y="0px"
	 width="32px" height="32px" viewBox="0 11.742 3.893 3.894" enable-background="new 0 11.742 3.893 3.894"
	 xml:space="preserve">
<g id="google-plus">
	<path fill="#FFFFFF" d="M1.918,13.167c-0.027-0.204-0.174-0.367-0.33-0.372s-0.26,0.151-0.233,0.355s0.175,0.373,0.33,0.377
		C1.841,13.533,1.945,13.372,1.918,13.167z"/>
	<path fill="#FFFFFF" d="M1.947,11.742C0.872,11.742,0,12.613,0,13.688s0.872,1.947,1.947,1.947c1.075,0,1.946-0.872,1.946-1.947
		S3.021,11.742,1.947,11.742z M1.626,14.657c-0.335,0-0.617-0.136-0.617-0.354c0-0.221,0.257-0.435,0.592-0.435
		c0.036,0,0.07-0.001,0.104-0.001c-0.046-0.044-0.082-0.099-0.082-0.167c0-0.04,0.013-0.079,0.031-0.112
		c-0.019,0.001-0.037,0.001-0.056,0.001c-0.275,0-0.459-0.195-0.459-0.438c0-0.237,0.254-0.442,0.524-0.442h0.603l-0.135,0.098H1.94
		c0.127,0.049,0.194,0.196,0.194,0.348c0,0.127-0.07,0.237-0.17,0.315c-0.097,0.076-0.116,0.107-0.116,0.172
		c0,0.055,0.104,0.149,0.159,0.188c0.159,0.113,0.21,0.217,0.21,0.392C2.218,14.44,2.007,14.657,1.626,14.657z M2.884,13.735H2.65
		v0.235H2.461v-0.235H2.226v-0.189h0.235v-0.235H2.65v0.235h0.234V13.735z"/>
	<path fill="#FFFFFF" d="M1.815,13.948c-0.046-0.015-0.096-0.023-0.15-0.024c-0.231-0.002-0.439,0.141-0.439,0.313
		c0,0.176,0.167,0.322,0.398,0.322c0.326,0,0.439-0.137,0.439-0.313c0-0.021-0.003-0.042-0.008-0.063
		C2.03,14.085,1.94,14.036,1.815,13.948z"/>
</g>
</svg>
