<?xml version="1.0" encoding="utf-8"?>
<!-- Generator: Adobe Illustrator 16.0.0, SVG Export Plug-In . SVG Version: 6.00 Build 0)  -->
<!DOCTYPE svg PUBLIC "-//W3C//DTD SVG 1.1//EN" "http://www.w3.org/Graphics/SVG/1.1/DTD/svg11.dtd">
<svg version="1.1" id="Layer_1" xmlns="http://www.w3.org/2000/svg" xmlns:xlink="http://www.w3.org/1999/xlink" x="0px" y="0px"
	 width="263.028px" height="70px" viewBox="0 0 263.028 70" enable-background="new 0 0 263.028 70" xml:space="preserve">
<circle fill="#FDD474" cx="35" cy="35" r="35"/>
<g>
	<path fill="#FFFFFF" d="M100.28,24.582h9.449c6.12,0,7.29,3.959,7.29,6.629s-1.17,6.57-7.29,6.57h-5.7v8.22h-3.749V24.582z
		 M104.029,34.722h5.49c1.68,0,3.75-0.84,3.75-3.54c0-2.82-1.71-3.54-3.69-3.54h-5.55V34.722z"/>
	<path fill="#FFFFFF" d="M123.8,24.582h3.99l8.249,21.419h-4.02l-2.01-5.67h-8.55l-2.01,5.67h-3.87L123.8,24.582z M122.479,37.481
		h6.54l-3.21-9.21h-0.09L122.479,37.481z"/>
	<path fill="#FFFFFF" d="M156.769,46.001h-2.399l-0.57-2.52c-2.01,2.279-3.84,3.029-6.449,3.029c-6.39,0-10.26-5.069-10.26-11.219
		c0-6.09,3.87-11.22,10.26-11.22c4.649,0,8.609,2.49,9.18,7.32h-3.66c-0.39-2.79-2.79-4.26-5.52-4.26c-4.59,0-6.51,4.05-6.51,8.16
		c0,4.109,1.92,8.159,6.51,8.159c3.869,0.09,5.909-2.25,5.999-5.88h-5.699v-2.85h9.119V46.001z"/>
	<path fill="#FFFFFF" d="M160.85,24.582h15.419v3.24h-11.67v5.61h10.8v3.06h-10.8v6.27h11.88v3.24H160.85V24.582z"/>
	<path fill="#FFFFFF" d="M179.749,24.582h3.749v18.179h10.89v3.24h-14.639V24.582z"/>
	<path fill="#FFFFFF" d="M196.969,24.582h3.749v21.419h-3.749V24.582z"/>
	<path fill="#FFFFFF" d="M205.159,24.582h3.96l9.779,15.779h0.061V24.582h3.569v21.419h-3.96l-9.749-15.75h-0.09v15.75h-3.57V24.582
		z"/>
	<path fill="#FFFFFF" d="M226.969,24.582h15.419v3.24h-11.67v5.61h10.8v3.06h-10.8v6.27h11.88v3.24h-15.629V24.582z"/>
	<path fill="#FFFFFF" d="M248.328,38.861c0,3.27,2.43,4.59,5.43,4.59c3.3,0,4.529-1.65,4.529-3.239c0-1.65-0.899-2.311-1.77-2.641
		c-1.53-0.569-3.42-0.96-6.39-1.77c-3.69-0.96-4.74-3.21-4.74-5.43c0-4.32,3.96-6.3,7.83-6.3c4.439,0,8.22,2.37,8.22,6.84h-3.75
		c-0.21-2.76-2.01-3.78-4.62-3.78c-1.74,0-3.93,0.63-3.93,2.79c0,1.53,1.02,2.31,2.55,2.76c0.33,0.09,5.07,1.32,6.18,1.65
		c2.79,0.87,4.17,3.18,4.17,5.459c0,4.8-4.29,6.72-8.52,6.72c-4.89,0-8.85-2.34-8.939-7.649H248.328z"/>
</g>
</svg>
