<?xml version="1.0" encoding="utf-8"?>
<!-- Generator: Adobe Illustrator 16.0.0, SVG Export Plug-In . SVG Version: 6.00 Build 0)  -->
<!DOCTYPE svg PUBLIC "-//W3C//DTD SVG 1.1//EN" "http://www.w3.org/Graphics/SVG/1.1/DTD/svg11.dtd">
<svg version="1.1" id="Layer_1" xmlns="http://www.w3.org/2000/svg" xmlns:xlink="http://www.w3.org/1999/xlink" x="0px" y="0px"
	 width="32px" height="32px" viewBox="0.004 -84.751 262.969 262.969"
	 enable-background="new 0.004 -84.751 262.969 262.969" xml:space="preserve">
<g id="pinterest">
	<path fill="#FFFFFF" d="M131.488-84.751C58.876-84.751,0.004-25.879,0.004,46.733c0,72.62,58.872,131.484,131.484,131.484
		c72.621,0,131.484-58.864,131.484-131.484C262.973-25.879,204.109-84.751,131.488-84.751z M131.488,112.122
		c-6.476,0-12.721-0.944-18.629-2.695c2.489-3.937,5.227-9.023,6.615-14.077c0.805-2.926,4.626-18.07,4.626-18.07
		c2.284,4.355,8.958,8.192,16.058,8.192c21.137,0,35.477-19.263,35.477-45.05c0-19.492-16.518-37.67-41.623-37.67
		c-31.236,0-46.981,22.41-46.981,41.08c0,11.3,4.281,21.358,13.469,25.122c1.504,0.608,2.852,0.017,3.287-1.651
		c0.304-1.159,1.027-4.076,1.34-5.276c0.436-1.651,0.271-2.227-0.945-3.665c-2.646-3.131-4.331-7.166-4.331-12.894
		c0-16.608,12.426-31.474,32.361-31.474c17.645,0,27.35,10.782,27.35,25.188c0,18.958-8.391,34.949-20.849,34.949
		c-6.878,0-12.022-5.686-10.371-12.672c1.973-8.316,5.81-17.307,5.81-23.321c0-5.374-2.893-9.87-8.866-9.87
		c-7.026,0-12.681,7.273-12.681,17.02c0,6.204,2.096,10.403,2.096,10.403s-7.19,30.488-8.455,35.813
		c-1.176,4.996-1.332,10.51-1.143,15.104C81.936,96.435,65.746,73.301,65.746,46.389c0-36.315,29.444-65.743,65.742-65.743
		s65.742,29.428,65.742,65.743C197.23,82.694,167.795,112.122,131.488,112.122z"/>
</g>
</svg>
