<?xml version="1.0" encoding="utf-8"?>
<!-- Generator: Adobe Illustrator 16.0.0, SVG Export Plug-In . SVG Version: 6.00 Build 0)  -->
<!DOCTYPE svg PUBLIC "-//W3C//DTD SVG 1.1//EN" "http://www.w3.org/Graphics/SVG/1.1/DTD/svg11.dtd">
<svg version="1.1" id="Layer_1" xmlns="http://www.w3.org/2000/svg" xmlns:xlink="http://www.w3.org/1999/xlink" x="0px" y="0px"
	 width="32px" height="32px" viewBox="0 11.742 3.893 3.894" enable-background="new 0 11.742 3.893 3.894"
	 xml:space="preserve">
<g id="twitter">
	<path fill="#FFFFFF" d="M1.947,11.742C0.872,11.742,0,12.613,0,13.688s0.872,1.947,1.947,1.947c1.075,0,1.946-0.872,1.946-1.947
		S3.021,11.742,1.947,11.742z M2.722,13.386c0.001,0.017,0.001,0.034,0.001,0.052c0,0.529-0.402,1.138-1.138,1.138
		c-0.226,0-0.436-0.066-0.613-0.18c0.031,0.003,0.063,0.005,0.095,0.005c0.188,0,0.36-0.064,0.497-0.171
		c-0.175-0.003-0.323-0.119-0.374-0.278c0.024,0.005,0.049,0.007,0.075,0.007c0.037,0,0.072-0.005,0.105-0.014
		c-0.183-0.037-0.321-0.198-0.321-0.392v-0.005c0.054,0.03,0.116,0.048,0.181,0.05c-0.107-0.072-0.178-0.194-0.178-0.333
		c0-0.073,0.02-0.142,0.054-0.201c0.197,0.242,0.492,0.401,0.824,0.418c-0.007-0.029-0.01-0.06-0.01-0.091
		c0-0.221,0.179-0.4,0.4-0.4c0.115,0,0.219,0.048,0.292,0.126c0.091-0.018,0.177-0.051,0.254-0.097
		c-0.03,0.093-0.093,0.172-0.176,0.221c0.081-0.01,0.158-0.031,0.23-0.063C2.868,13.259,2.8,13.329,2.722,13.386z"/>
</g>
</svg>
